<svg width="20" height="20" viewBox="0 0 20 20" fill="none" xmlns="http://www.w3.org/2000/svg">
<path d="M4.43242 12.086L3.73625 14.6849L1.19176 14.7387C0.431328 13.3283 0 11.7146 0 9.99975C0 8.34152 0.403282 6.77778 1.11813 5.40088H1.11867L3.38399 5.81619L4.37633 8.06789C4.16863 8.67339 4.05543 9.32339 4.05543 9.99975C4.05551 10.7338 4.18848 11.4371 4.43242 12.086Z" fill="#FBBB00"/>
<path d="M19.8253 8.13184C19.9402 8.73675 20.0001 9.36147 20.0001 9.99995C20.0001 10.7159 19.9248 11.4142 19.7814 12.0879C19.2946 14.3801 18.0226 16.3818 16.2605 17.7982L16.26 17.7977L13.4067 17.6521L13.0029 15.1312C14.1721 14.4455 15.0859 13.3725 15.5672 12.0879H10.2199V8.13184H15.6452H19.8253Z" fill="#518EF8"/>
<path d="M16.26 17.7979L16.2605 17.7985C14.5468 19.1759 12.3698 20.0001 10.0001 20.0001C6.19184 20.0001 2.88086 17.8715 1.19183 14.7391L4.4325 12.0864C5.27699 14.3402 7.45117 15.9446 10.0001 15.9446C11.0957 15.9446 12.1221 15.6485 13.0028 15.1314L16.26 17.7979Z" fill="#28B446"/>
<path d="M16.383 2.30217L13.1434 4.95434C12.2319 4.38458 11.1544 4.05544 10 4.05544C7.39344 4.05544 5.1786 5.73343 4.37641 8.06806L1.11871 5.40105H1.11816C2.78246 2.19229 6.1352 0 10 0C12.4264 0 14.6511 0.86429 16.383 2.30217Z" fill="#F14336"/>
</svg>
